<mxfile host="65bd71144e">
    <diagram id="UUAtwhpTZ4ZS1WnXTG8r" name="Seite-1">
        <mxGraphModel dx="1034" dy="719" grid="1" gridSize="10" guides="1" tooltips="1" connect="1" arrows="1" fold="1" page="1" pageScale="1" pageWidth="827" pageHeight="1169" math="0" shadow="0">
            <root>
                <mxCell id="0"/>
                <mxCell id="1" parent="0"/>
                <mxCell id="2" value="Projekt: Essen im Netz" style="rounded=1;whiteSpace=wrap;html=1;" vertex="1" parent="1">
                    <mxGeometry x="40" y="20" width="190" height="60" as="geometry"/>
                </mxCell>
                <mxCell id="3" value="" style="whiteSpace=wrap;html=1;aspect=fixed;" vertex="1" parent="1">
                    <mxGeometry x="40" y="170" width="200" height="200" as="geometry"/>
                </mxCell>
                <mxCell id="4" value="C#-Programm" style="text;html=1;strokeColor=none;fillColor=none;align=center;verticalAlign=middle;whiteSpace=wrap;rounded=0;" vertex="1" parent="1">
                    <mxGeometry x="40" y="140" width="120" height="30" as="geometry"/>
                </mxCell>
                <mxCell id="5" value="" style="rounded=0;whiteSpace=wrap;html=1;rotation=-90;textDirection=ltr;labelPosition=center;verticalLabelPosition=middle;align=center;verticalAlign=middle;" vertex="1" parent="1">
                    <mxGeometry x="430" y="230" width="190" height="80" as="geometry"/>
                </mxCell>
                <mxCell id="6" value="php-Skript" style="text;html=1;strokeColor=none;fillColor=none;align=center;verticalAlign=middle;whiteSpace=wrap;rounded=0;" vertex="1" parent="1">
                    <mxGeometry x="495" y="180" width="60" height="30" as="geometry"/>
                </mxCell>
                <mxCell id="7" value="WebServer" style="text;html=1;strokeColor=none;fillColor=none;align=center;verticalAlign=middle;whiteSpace=wrap;rounded=0;" vertex="1" parent="1">
                    <mxGeometry x="495" y="130" width="60" height="30" as="geometry"/>
                </mxCell>
                <mxCell id="9" value="" style="shape=cylinder3;whiteSpace=wrap;html=1;boundedLbl=1;backgroundOutline=1;size=15;" vertex="1" parent="1">
                    <mxGeometry x="710" y="180" width="90" height="140" as="geometry"/>
                </mxCell>
                <mxCell id="10" value="MySQL-Server" style="text;html=1;strokeColor=none;fillColor=none;align=center;verticalAlign=middle;whiteSpace=wrap;rounded=0;" vertex="1" parent="1">
                    <mxGeometry x="710" y="140" width="100" height="30" as="geometry"/>
                </mxCell>
                <mxCell id="13" value="1. Anmelden&lt;br&gt;- Adresse&lt;br&gt;- User&lt;br&gt;- Password" style="text;html=1;strokeColor=none;fillColor=none;align=center;verticalAlign=middle;whiteSpace=wrap;rounded=0;" vertex="1" parent="1">
                    <mxGeometry x="697" y="330" width="130" height="70" as="geometry"/>
                </mxCell>
                <mxCell id="14" value="" style="endArrow=classic;startArrow=classic;html=1;" edge="1" parent="1">
                    <mxGeometry width="50" height="50" relative="1" as="geometry">
                        <mxPoint x="590" y="269.52" as="sourcePoint"/>
                        <mxPoint x="690" y="269.52" as="targetPoint"/>
                    </mxGeometry>
                </mxCell>
                <mxCell id="15" value="" style="whiteSpace=wrap;html=1;aspect=fixed;" vertex="1" parent="1">
                    <mxGeometry x="170" y="440" width="260" height="260" as="geometry"/>
                </mxCell>
                <mxCell id="16" value="" style="whiteSpace=wrap;html=1;aspect=fixed;" vertex="1" parent="1">
                    <mxGeometry x="190" y="464.5" width="120" height="120" as="geometry"/>
                </mxCell>
                <mxCell id="18" value="Bestellung" style="rounded=0;whiteSpace=wrap;html=1;" vertex="1" parent="1">
                    <mxGeometry x="330" y="464.5" width="90" height="40" as="geometry"/>
                </mxCell>
                <mxCell id="19" value="" style="image;html=1;image=img/lib/clip_art/networking/Firewall-page1_128x128.png" vertex="1" parent="1">
                    <mxGeometry x="340" y="180" width="110" height="180" as="geometry"/>
                </mxCell>
            </root>
        </mxGraphModel>
    </diagram>
</mxfile>